<!DOCTYPE svg PUBLIC "-//W3C//DTD SVG 1.1//EN" "http://www.w3.org/Graphics/SVG/1.1/DTD/svg11.dtd">
<!-- Uploaded to: SVG Repo, www.svgrepo.com, Transformed by: SVG Repo Mixer Tools -->
<svg fill="#000000" width="120px" height="120px" viewBox="0 0 24 24" xmlns="http://www.w3.org/2000/svg">
<g id="SVGRepo_bgCarrier" stroke-width="0"/>
<g id="SVGRepo_tracerCarrier" stroke-linecap="round" stroke-linejoin="round"/>
<g id="SVGRepo_iconCarrier"> <g data-name="Layer 2"> <g data-name="code"> <rect width="24" height="24" transform="rotate(90 12 12)" opacity="0"/> <path d="M8.64 5.23a1 1 0 0 0-1.41.13l-5 6a1 1 0 0 0 0 1.27l4.83 6a1 1 0 0 0 .78.37 1 1 0 0 0 .78-1.63L4.29 12l4.48-5.36a1 1 0 0 0-.13-1.41z"/> <path d="M21.78 11.37l-4.78-6a1 1 0 0 0-1.41-.15 1 1 0 0 0-.15 1.41L19.71 12l-4.48 5.37a1 1 0 0 0 .13 1.41A1 1 0 0 0 16 19a1 1 0 0 0 .77-.36l5-6a1 1 0 0 0 .01-1.27z"/> </g> </g> </g>
</svg>